<?xml version="1.0" encoding="UTF-8"?>
<svg id="_レイヤー_2" data-name="レイヤー 2" xmlns="http://www.w3.org/2000/svg" viewBox="0 0 76.62 81.68">
  <defs>
    <style>
      .cls-1 {
        fill: #fff;
      }
    </style>
  </defs>
  <g id="_レイヤー_3" data-name="レイヤー 3">
    <g>
      <path class="cls-1" d="M31.69,36.23c.76-2.12,2.43-3.78,4.54-4.54l15.8-5.68-15.8-5.68c-2.11-.76-3.78-2.43-4.54-4.54L26.01,0l-5.68,15.8c-.76,2.11-2.43,3.78-4.54,4.54L0,26.01l15.8,5.68c2.11.76,3.78,2.43,4.54,4.54l5.68,15.8,5.68-15.8Z"/>
      <path class="cls-1" d="M47.29,57.35l-3.81-10.61-3.81,10.61c-.51,1.42-1.63,2.54-3.05,3.05l-10.61,3.81,10.61,3.81c1.42.51,2.54,1.63,3.05,3.05l3.81,10.61,3.81-10.61c.51-1.42,1.63-2.54,3.05-3.05l10.61-3.81-10.61-3.81c-1.42-.51-2.54-1.63-3.05-3.05Z"/>
      <path class="cls-1" d="M68.27,35.26c-1.12-.4-2-1.28-2.4-2.4l-3-8.36-3,8.36c-.4,1.12-1.28,2-2.4,2.4l-8.36,3,8.36,3c1.12.4,2,1.28,2.4,2.4l3,8.36,3-8.36c.4-1.12,1.28-2,2.4-2.4l8.36-3-8.36-3Z"/>
    </g>
  </g>
</svg>