<svg width="76" height="87" viewBox="0 0 76 87" fill="none" xmlns="http://www.w3.org/2000/svg">
<g clip-path="url(#clip0_27_658)">
<path d="M34.4602 28.62L34.0402 18.35L33.7402 28.63C33.3702 41.49 23.1102 51.86 10.2602 52.38L-0.00976562 52.8L10.2702 53.1C23.1302 53.47 33.5002 63.73 34.0202 76.58L34.4402 86.85L34.7402 76.57C35.1102 63.71 45.3702 53.34 58.2202 52.82L68.4902 52.4L58.2102 52.1C45.3502 51.73 34.9802 41.47 34.4602 28.62Z" fill="#FFD400"/>
<path d="M70.84 16.02C64.74 15.84 59.81 10.98 59.57 4.88L59.37 0L59.23 4.88C59.05 10.98 54.19 15.91 48.09 16.15L43.21 16.35L48.09 16.49C54.19 16.67 59.12 21.53 59.36 27.63L59.56 32.51L59.7 27.63C59.88 21.53 64.74 16.6 70.84 16.36L75.72 16.16L70.84 16.02Z" fill="#FFD400"/>
<path d="M8.72 39.96L8.83 42.59L8.91 39.96C9.01 36.66 11.63 34 14.93 33.87L17.56 33.76L14.93 33.68C11.63 33.58 8.97 30.96 8.84 27.66L8.73 25.03L8.65 27.66C8.55 30.96 5.93 33.62 2.63 33.75L0 33.86L2.63 33.94C5.93 34.04 8.59 36.66 8.72 39.96Z" fill="#FFD400"/>
</g>
<defs>
<clipPath id="clip0_27_658">
<rect width="75.71" height="86.84" fill="white"/>
</clipPath>
</defs>
</svg>
