<svg width="874" height="524" viewBox="0 0 874 524" fill="none" xmlns="http://www.w3.org/2000/svg">
<g filter="url(#filter0_d_23_655)">
<rect x="12" y="8" width="850" height="500" rx="30" stroke="#FFD400" stroke-width="15"/>
<path d="M762 145L729.206 255.345V317.942H687.546V255.345L655.928 145H697.267C703.747 178.684 707.379 201.365 708.163 213.044C710.655 194.6 714.821 171.919 720.661 145H762Z" stroke="#FFD400" stroke-width="7" stroke-linejoin="round"/>
<path d="M648.13 145V317.942H608.82V201.187L593.118 317.942H565.237L548.68 203.858V317.942H509.371V145H567.588C569.297 155.397 571.113 167.646 573.035 181.746L579.231 225.756L589.486 145H648.13Z" stroke="#FFD400" stroke-width="7" stroke-linejoin="round"/>
<path d="M491.318 145V317.942H452.008V201.187L436.305 317.942H408.425L391.868 203.858V317.942H352.559V145H410.776C412.485 155.397 414.301 167.646 416.223 181.746L422.419 225.756L432.674 145H491.318Z" stroke="#FFD400" stroke-width="7" stroke-linejoin="round"/>
<path d="M335.147 145V260.579C335.147 273.683 334.72 282.905 333.865 288.246C333.011 293.515 330.483 298.963 326.281 304.589C322.079 310.144 316.525 314.381 309.617 317.301C302.781 320.149 294.698 321.573 285.369 321.573C275.043 321.573 265.928 319.864 258.023 316.446C250.118 313.028 244.208 308.577 240.291 303.094C236.374 297.61 234.06 291.842 233.347 285.789C232.635 279.664 232.279 266.846 232.279 247.334V145H277.251V274.68C277.251 282.228 277.642 287.071 278.426 289.207C279.28 291.272 280.954 292.305 283.446 292.305C286.295 292.305 288.111 291.165 288.894 288.887C289.748 286.537 290.176 281.053 290.176 272.436V145H335.147Z" stroke="#FFD400" stroke-width="7" stroke-linejoin="round"/>
<path d="M112 145H145.648C167.368 145 182.038 145.997 189.658 147.991C197.349 149.985 203.189 153.261 207.177 157.818C211.165 162.376 213.657 167.468 214.654 173.094C215.651 178.648 216.15 189.615 216.15 205.994V266.561C216.15 282.086 215.402 292.483 213.906 297.753C212.482 302.951 209.954 307.046 206.322 310.037C202.69 312.957 198.204 315.022 192.863 316.232C187.522 317.372 179.475 317.942 168.721 317.942H112V145ZM156.971 174.589V288.352C163.452 288.352 167.44 287.071 168.935 284.507C170.431 281.872 171.178 274.786 171.178 263.25V196.06C171.178 188.226 170.929 183.206 170.431 180.998C169.932 178.791 168.793 177.188 167.012 176.191C165.232 175.123 161.885 174.589 156.971 174.589Z" stroke="#FFD400" stroke-width="7" stroke-linejoin="round"/>
<path d="M517.488 353V364.984H508.241V412.882H492.669V364.984H483.459V353H517.488Z" stroke="#FFD400" stroke-width="5" stroke-linejoin="round"/>
<path d="M472.686 353L467.249 379.483L475.46 412.882H461.035C459.309 406.915 457.731 399.653 456.3 391.097C455.906 394.869 455.363 398.876 454.673 403.117L453.193 412.882H438.029L443.651 379.483L438.029 353H453.083C453.354 354.652 453.896 357.401 454.71 361.248C455.351 364.182 455.881 366.87 456.3 369.311L459.629 353H472.686Z" stroke="#FFD400" stroke-width="5" stroke-linejoin="round"/>
<path d="M401.028 353H426.993V364.984H416.6V376.339H426.327V387.731H416.6V400.898H428.029V412.882H401.028V353Z" stroke="#FFD400" stroke-width="5" stroke-linejoin="round"/>
<path d="M391.028 353V364.984H381.781V412.882H366.21V364.984H357V353H391.028Z" stroke="#FFD400" stroke-width="5" stroke-linejoin="round"/>
</g>
<defs>
<filter id="filter0_d_23_655" x="0.5" y="0.5" width="873" height="523" filterUnits="userSpaceOnUse" color-interpolation-filters="sRGB">
<feFlood flood-opacity="0" result="BackgroundImageFix"/>
<feColorMatrix in="SourceAlpha" type="matrix" values="0 0 0 0 0 0 0 0 0 0 0 0 0 0 0 0 0 0 127 0" result="hardAlpha"/>
<feOffset dy="4"/>
<feGaussianBlur stdDeviation="2"/>
<feComposite in2="hardAlpha" operator="out"/>
<feColorMatrix type="matrix" values="0 0 0 0 0 0 0 0 0 0 0 0 0 0 0 0 0 0 0.25 0"/>
<feBlend mode="normal" in2="BackgroundImageFix" result="effect1_dropShadow_23_655"/>
<feBlend mode="normal" in="SourceGraphic" in2="effect1_dropShadow_23_655" result="shape"/>
</filter>
</defs>
</svg>
