<svg width="850" height="500" viewBox="0 0 850 500" fill="none" xmlns="http://www.w3.org/2000/svg">
<rect width="850" height="500" rx="30" fill="#D9D9D9"/>
<path d="M750 137L717.206 247.345V309.942H675.546V247.345L643.928 137H685.267C691.747 170.684 695.379 193.365 696.163 205.044C698.655 186.6 702.821 163.919 708.661 137H750Z" fill="#D9D9D9" stroke="#858585" stroke-width="7" stroke-linejoin="round"/>
<path d="M636.13 137V309.942H596.82V193.187L581.118 309.942H553.237L536.68 195.858V309.942H497.371V137H555.588C557.297 147.397 559.113 159.646 561.035 173.746L567.231 217.756L577.486 137H636.13Z" fill="#D9D9D9" stroke="#858585" stroke-width="7" stroke-linejoin="round"/>
<path d="M479.318 137V309.942H440.008V193.187L424.305 309.942H396.425L379.868 195.858V309.942H340.559V137H398.776C400.485 147.397 402.301 159.646 404.223 173.746L410.419 217.756L420.674 137H479.318Z" fill="#D9D9D9" stroke="#858585" stroke-width="7" stroke-linejoin="round"/>
<path d="M323.147 137V252.579C323.147 265.683 322.72 274.905 321.865 280.246C321.011 285.515 318.483 290.963 314.281 296.589C310.079 302.144 304.525 306.381 297.617 309.301C290.781 312.149 282.698 313.573 273.369 313.573C263.043 313.573 253.928 311.864 246.023 308.446C238.118 305.028 232.208 300.577 228.291 295.094C224.374 289.61 222.06 283.842 221.347 277.789C220.635 271.664 220.279 258.846 220.279 239.334V137H265.251V266.68C265.251 274.228 265.642 279.071 266.426 281.207C267.28 283.272 268.954 284.305 271.446 284.305C274.295 284.305 276.111 283.165 276.894 280.887C277.748 278.537 278.176 273.053 278.176 264.436V137H323.147Z" fill="#D9D9D9" stroke="#858585" stroke-width="7" stroke-linejoin="round"/>
<path d="M100 137H133.648C155.368 137 170.038 137.997 177.658 139.991C185.349 141.985 191.189 145.261 195.177 149.818C199.165 154.376 201.657 159.468 202.654 165.094C203.651 170.648 204.15 181.615 204.15 197.994V258.561C204.15 274.086 203.402 284.483 201.906 289.753C200.482 294.951 197.954 299.046 194.322 302.037C190.69 304.957 186.204 307.022 180.863 308.232C175.522 309.372 167.475 309.942 156.721 309.942H100V137ZM144.971 166.589V280.352C151.452 280.352 155.44 279.071 156.935 276.507C158.431 273.872 159.178 266.786 159.178 255.25V188.06C159.178 180.226 158.929 175.206 158.431 172.998C157.932 170.791 156.793 169.188 155.012 168.191C153.232 167.123 149.885 166.589 144.971 166.589Z" fill="#D9D9D9" stroke="#858585" stroke-width="7" stroke-linejoin="round"/>
<path d="M505.488 345V356.984H496.241V404.882H480.669V356.984H471.459V345H505.488Z" fill="#D9D9D9" stroke="#858585" stroke-width="5" stroke-linejoin="round"/>
<path d="M460.686 345L455.249 371.483L463.46 404.882H449.035C447.309 398.915 445.731 391.653 444.3 383.097C443.906 386.869 443.363 390.876 442.673 395.117L441.193 404.882H426.029L431.651 371.483L426.029 345H441.083C441.354 346.652 441.896 349.401 442.71 353.248C443.351 356.182 443.881 358.87 444.3 361.311L447.629 345H460.686Z" fill="#D9D9D9" stroke="#858585" stroke-width="5" stroke-linejoin="round"/>
<path d="M389.028 345H414.993V356.984H404.6V368.339H414.327V379.731H404.6V392.898H416.029V404.882H389.028V345Z" fill="#D9D9D9" stroke="#858585" stroke-width="5" stroke-linejoin="round"/>
<path d="M379.028 345V356.984H369.781V404.882H354.21V356.984H345V345H379.028Z" fill="#D9D9D9" stroke="#858585" stroke-width="5" stroke-linejoin="round"/>
</svg>
