<?xml version="1.0" encoding="UTF-8"?>
<svg id="_レイヤー_1" data-name="レイヤー 1" xmlns="http://www.w3.org/2000/svg" viewBox="0 0 1550 316.37">
  <defs>
    <style>
      .cls-1 {
        fill: #6c6c6c;
      }

      .cls-2 {
        fill: #989898;
      }

      .cls-3 {
        fill: #b2b2b2;
      }
    </style>
  </defs>
  <g>
    <path class="cls-3" d="M0,159.95c35.87,14.56,70.77,30.25,104.66,46.98-9.66,36.54-17.98,73.05-24.96,109.44,74.21-37.81,150.74-69.2,228.8-94.17-17.82-55.74-35.65-111.47-53.47-167.21C168.02,82.81,82.72,117.8,0,159.95Z"/>
    <path class="cls-1" d="M171.94,111.89c30.49-11.72,61.24-22.52,92.21-32.4-2.64-8.29-5.29-16.58-7.93-24.88-28.81,18.33-56.91,37.43-84.28,57.28Z"/>
  </g>
  <g>
    <path class="cls-3" d="M1550,159.95c-35.87,14.56-70.77,30.25-104.66,46.98,9.66,36.54,17.98,73.05,24.96,109.44-74.22-37.81-150.74-69.2-228.8-94.17,17.82-55.74,35.65-111.47,53.47-167.21,87,27.83,172.3,62.81,255.03,104.96Z"/>
    <path class="cls-1" d="M1378.06,111.89c-30.49-11.72-61.25-22.52-92.21-32.4,2.64-8.29,5.29-16.58,7.93-24.88,28.81,18.33,56.91,37.43,84.28,57.28Z"/>
  </g>
  <path class="cls-2" d="M1313.79,275.26c-347.18-133.11-731.78-132.94-1078.87.49-20.99-54.62-41.99-109.24-62.98-163.87,387.57-149,817.01-149.18,1204.68-.55-20.94,54.64-41.89,109.28-62.83,163.93Z"/>
</svg>